<svg width="249" height="21" viewBox="0 0 249 21" fill="none" xmlns="http://www.w3.org/2000/svg">
<path d="M0 18.2202H1.14042C1.32607 18.2202 1.50288 18.2025 1.67085 18.1671C1.83882 18.1318 1.98468 18.0611 2.10845 17.955C2.24106 17.8401 2.34272 17.6765 2.41345 17.4643C2.49301 17.2433 2.53279 16.956 2.53279 16.6024V3.36822C2.53279 3.00576 2.49301 2.71844 2.41345 2.50627C2.34272 2.28526 2.24106 2.11729 2.10845 2.00236C1.98468 1.88744 1.83882 1.81229 1.67085 1.77693C1.50288 1.73273 1.32607 1.71063 1.14042 1.71063H0V0.278475H8.75206C11.3158 0.278475 13.1944 0.707237 14.3878 1.56476C15.5902 2.42229 16.1913 3.66879 16.1913 5.30428C16.1913 6.02035 16.0852 6.65687 15.873 7.21382C15.6609 7.77077 15.378 8.25699 15.0244 8.67249C14.6796 9.08799 14.2862 9.44161 13.8442 9.73335C13.4021 10.0162 12.9513 10.2505 12.4916 10.4362L15.7272 16.0057C15.957 16.3946 16.178 16.7306 16.3902 17.0135C16.6112 17.2875 16.8278 17.5174 17.04 17.703C17.261 17.8798 17.4864 18.0124 17.7163 18.1008C17.9461 18.1804 18.1892 18.2202 18.4456 18.2202H18.5517V19.6656H17.6632C16.8499 19.6656 16.1383 19.6347 15.5283 19.5728C14.9271 19.5109 14.3967 19.3916 13.937 19.2147C13.4861 19.0291 13.0927 18.7771 12.7568 18.4589C12.4297 18.1406 12.1247 17.7295 11.8418 17.2256L8.61945 11.2451H6.816V16.6024C6.816 16.956 6.85136 17.2433 6.92208 17.4643C7.00165 17.6765 7.10331 17.8401 7.22708 17.955C7.35968 18.0611 7.50997 18.1318 7.67794 18.1671C7.84591 18.2025 8.02272 18.2202 8.20837 18.2202H9.37531V19.6656H0V18.2202ZM6.816 9.66704H8.34097C8.96865 9.66704 9.49024 9.58306 9.90574 9.41509C10.3301 9.24712 10.666 8.99959 10.9135 8.67249C11.1699 8.33655 11.3512 7.92105 11.4572 7.42599C11.5722 6.92208 11.6296 6.33861 11.6296 5.67558C11.6296 4.98602 11.5677 4.40255 11.444 3.92516C11.3202 3.44778 11.1257 3.0588 10.8605 2.75822C10.5953 2.44881 10.2505 2.2278 9.82617 2.09519C9.40183 1.95374 8.88908 1.88302 8.28793 1.88302H6.816V9.66704Z" fill="#FFBB7C"/>
<path d="M26.044 18.008H31.4809C31.7549 18.008 31.9892 17.9594 32.1837 17.8622C32.3782 17.7561 32.5462 17.6102 32.6876 17.4245C32.8291 17.2389 32.9396 17.0223 33.0191 16.7748C33.1075 16.5184 33.1738 16.2399 33.218 15.9394L33.4302 14.6663H35.3132L35.1143 19.6656H19.2015V18.2202H20.3419C20.5364 18.2202 20.7176 18.2025 20.8856 18.1671C21.0536 18.1318 21.1994 18.0611 21.3232 17.955C21.4558 17.8401 21.5575 17.6765 21.6282 17.4643C21.6989 17.2433 21.7343 16.956 21.7343 16.6024V3.4743C21.7343 3.08532 21.6989 2.7759 21.6282 2.54605C21.5575 2.3162 21.4602 2.13939 21.3365 2.01562C21.2127 1.89186 21.0668 1.81229 20.8988 1.77693C20.7309 1.73273 20.5452 1.71063 20.3419 1.71063H19.2015V0.278475H34.2789L34.385 5.27776H32.4887L32.3561 3.99147C32.2854 3.32843 32.1174 2.82011 31.8522 2.46649C31.587 2.11287 31.1759 1.93606 30.6189 1.93606H26.044V8.72554H32.4887V10.3566H26.044V18.008Z" fill="#FFBB7C"/>
<path d="M42.1027 13.2872L41.3203 15.6211C41.2496 15.8421 41.1744 16.1029 41.0949 16.4035C41.0242 16.6952 40.9888 16.9516 40.9888 17.1726C40.9888 17.3494 41.0242 17.5041 41.0949 17.6367C41.1656 17.7693 41.2584 17.8798 41.3734 17.9682C41.4883 18.0478 41.6165 18.1097 41.7579 18.1539C41.9082 18.1981 42.0629 18.2202 42.222 18.2202H43.3625V19.6656H36.2945V18.2202H36.626C36.8647 18.2202 37.0813 18.1937 37.2758 18.1406C37.4791 18.0876 37.6648 17.9903 37.8328 17.8489C38.0096 17.6986 38.1731 17.4953 38.3234 17.2389C38.4825 16.9825 38.6417 16.651 38.8008 16.2443L44.6885 0.278475H48.4148L54.0904 16.2709C54.223 16.651 54.36 16.9693 54.5014 17.2256C54.6517 17.4732 54.8109 17.6721 54.9788 17.8224C55.1556 17.9638 55.3413 18.0655 55.5358 18.1274C55.7303 18.1892 55.9336 18.2202 56.1458 18.2202H56.6364V19.6656H47.6722V18.2202H48.733C48.8656 18.2202 49.0027 18.2025 49.1441 18.1671C49.2856 18.1229 49.4093 18.0611 49.5154 17.9815C49.6303 17.8931 49.7232 17.7826 49.7939 17.65C49.8646 17.5174 49.9 17.3582 49.9 17.1726C49.9 16.9516 49.8735 16.7394 49.8204 16.5361C49.7674 16.3328 49.7143 16.1559 49.6613 16.0057L48.7065 13.2872H42.1027ZM46.7307 7.17403C46.6334 6.86462 46.5318 6.54194 46.4257 6.206C46.3284 5.86123 46.2268 5.51203 46.1207 5.15841C46.0234 4.80479 45.9262 4.45559 45.8289 4.11081C45.7405 3.7572 45.661 3.42126 45.5903 3.103C45.5107 3.37706 45.4179 3.67763 45.3118 4.00473C45.2057 4.33183 45.0908 4.66776 44.967 5.01254C44.8521 5.35732 44.7327 5.7021 44.609 6.04688C44.494 6.39165 44.3835 6.72317 44.2775 7.04143L42.6729 11.6296H48.1628L46.7307 7.17403Z" fill="#FFBB7C"/>
<path d="M75.9705 9.614C75.9705 11.0992 75.7672 12.4606 75.3605 13.6983C74.9539 14.9271 74.3439 15.9836 73.5305 16.8676C72.7261 17.7516 71.7227 18.4412 70.5204 18.9363C69.3269 19.4225 67.9389 19.6656 66.3565 19.6656H57.3923V18.2202H58.5327C58.736 18.2202 58.9217 18.2025 59.0896 18.1671C59.2576 18.1229 59.4035 18.039 59.5272 17.9152C59.651 17.7914 59.7483 17.6146 59.819 17.3848C59.8897 17.1549 59.9251 16.8455 59.9251 16.4565V3.36822C59.9251 3.00576 59.8897 2.71844 59.819 2.50627C59.7483 2.28526 59.6466 2.11729 59.514 2.00236C59.3902 1.88744 59.2444 1.81229 59.0764 1.77693C58.9084 1.73273 58.7272 1.71063 58.5327 1.71063H57.3923V0.278475H66.3565C67.8594 0.278475 69.2031 0.477385 70.3877 0.875206C71.5812 1.26419 72.589 1.85208 73.4112 2.63888C74.2422 3.41684 74.8743 4.38929 75.3075 5.55623C75.7495 6.72317 75.9705 8.07576 75.9705 9.614ZM71.3823 9.614C71.3823 7.02375 70.9049 5.09653 69.9501 3.83234C69.0042 2.56815 67.6074 1.93606 65.7598 1.93606H64.2083V17.9815H65.7332C66.6615 17.9815 67.4792 17.7914 68.1865 17.4113C68.8937 17.0223 69.4816 16.4654 69.9501 15.7404C70.4275 15.0155 70.7856 14.1403 71.0243 13.1148C71.263 12.0805 71.3823 10.9135 71.3823 9.614Z" fill="#FFBB7C"/>
<path d="M78.2381 19.6656V18.2202H79.3785C79.5818 18.2202 79.7675 18.2025 79.9354 18.1671C80.1034 18.1229 80.2493 18.039 80.3731 17.9152C80.4968 17.7914 80.5941 17.6146 80.6648 17.3848C80.7355 17.1549 80.7709 16.8455 80.7709 16.4565V3.48756C80.7709 3.09858 80.7355 2.78917 80.6648 2.55931C80.5941 2.32946 80.4968 2.15265 80.3731 2.02889C80.2493 1.90512 80.1034 1.82556 79.9354 1.79019C79.7675 1.74599 79.5818 1.72389 79.3785 1.72389H78.2381V0.278475H87.6134V1.72389H86.473C86.2785 1.72389 86.0928 1.74599 85.916 1.79019C85.7481 1.82556 85.6022 1.90512 85.4784 2.02889C85.3547 2.15265 85.2574 2.32946 85.1867 2.55931C85.116 2.78917 85.0806 3.09858 85.0806 3.48756V16.4565C85.0806 16.8455 85.116 17.1549 85.1867 17.3848C85.2574 17.6146 85.3547 17.7914 85.4784 17.9152C85.6022 18.039 85.7481 18.1229 85.916 18.1671C86.0928 18.2025 86.2785 18.2202 86.473 18.2202H87.6134V19.6656H78.2381Z" fill="#FFBB7C"/>
<path d="M104.295 19.6656L93.7 4.70755V16.4565C93.7 16.8455 93.7354 17.1549 93.8061 17.3848C93.8857 17.6146 93.9874 17.7914 94.1111 17.9152C94.2349 18.039 94.3808 18.1229 94.5487 18.1671C94.7255 18.2025 94.9068 18.2202 95.0924 18.2202H96.2328V19.6656H89.1384V18.2202H90.2788C90.4733 18.2202 90.6545 18.2025 90.8225 18.1671C90.9904 18.1229 91.1363 18.039 91.2601 17.9152C91.3927 17.7914 91.4943 17.6146 91.5651 17.3848C91.6358 17.1549 91.6712 16.8455 91.6712 16.4565V3.36822C91.6712 3.00576 91.6314 2.71844 91.5518 2.50627C91.4811 2.28526 91.3794 2.11729 91.2468 2.00236C91.1231 1.88744 90.9772 1.81229 90.8092 1.77693C90.6412 1.73273 90.4644 1.71063 90.2788 1.71063H89.1384V0.278475H95.172L104.759 13.8309V3.36822C104.759 3.00576 104.72 2.71844 104.64 2.50627C104.569 2.28526 104.468 2.11729 104.335 2.00236C104.211 1.88744 104.065 1.81229 103.898 1.77693C103.73 1.73273 103.553 1.71063 103.367 1.71063H102.227V0.278475H109.321V1.71063H108.181C107.995 1.71063 107.818 1.73273 107.65 1.77693C107.482 1.81229 107.332 1.89186 107.199 2.01562C107.076 2.13939 106.978 2.3162 106.908 2.54605C106.837 2.7759 106.802 3.08532 106.802 3.4743V19.6656H104.295Z" fill="#FFBB7C"/>
<path d="M121.269 19.9308C119.589 19.9308 118.122 19.6921 116.866 19.2147C115.62 18.7374 114.581 18.0611 113.75 17.1859C112.919 16.3107 112.3 15.2586 111.894 14.0298C111.487 12.801 111.284 11.4396 111.284 9.94552C111.284 8.478 111.5 7.13425 111.933 5.91427C112.367 4.69428 113.008 3.64669 113.856 2.77148C114.705 1.89628 115.761 1.21556 117.026 0.729338C118.29 0.243113 119.753 0 121.415 0C122.546 0 123.532 0.0839844 124.372 0.251953C125.221 0.411081 125.928 0.632093 126.494 0.914988C127.068 1.19788 127.497 1.53382 127.78 1.9228C128.063 2.30294 128.204 2.71402 128.204 3.15604C128.204 3.4743 128.129 3.77488 127.979 4.05777C127.829 4.33183 127.603 4.57494 127.303 4.78711C127.002 4.99928 126.635 5.16725 126.202 5.29102C125.769 5.40594 125.265 5.4634 124.69 5.4634C124.69 4.9153 124.624 4.41139 124.491 3.95169C124.359 3.49198 124.151 3.09858 123.868 2.77148C123.594 2.44439 123.245 2.19243 122.821 2.01562C122.396 1.82998 121.897 1.73715 121.322 1.73715C120.332 1.73715 119.488 1.91838 118.789 2.28084C118.1 2.6433 117.534 3.17373 117.092 3.87212C116.659 4.57052 116.34 5.43246 116.137 6.45796C115.943 7.47461 115.845 8.63713 115.845 9.94552C115.845 11.2539 115.947 12.4164 116.15 13.4331C116.363 14.4409 116.699 15.2896 117.158 15.9791C117.627 16.6687 118.228 17.1947 118.962 17.5572C119.704 17.9108 120.61 18.0876 121.68 18.0876C122.016 18.0876 122.352 18.0743 122.688 18.0478C123.024 18.0213 123.351 17.9727 123.669 17.9019V13.9105C123.669 13.1855 123.506 12.6816 123.179 12.3987C122.851 12.1159 122.37 11.9744 121.733 11.9744H121.375V10.5422H129.915V11.9744H129.557C129.283 11.9744 129.044 12.0098 128.841 12.0805C128.638 12.1424 128.47 12.2529 128.337 12.412C128.204 12.5711 128.107 12.7833 128.045 13.0485C127.983 13.3049 127.952 13.6276 127.952 14.0166V18.4721C126.892 18.9584 125.822 19.3252 124.743 19.5728C123.665 19.8115 122.507 19.9308 121.269 19.9308Z" fill="#FFBB7C"/>
<path d="M153.16 19.6656H149.05V3.69973H143.785V0.278475H158.425V3.69973H153.16V19.6656Z" fill="#FFBB7C"/>
<path d="M165.519 8.88466H166.845C168.145 8.88466 169.104 8.66807 169.723 8.23489C170.342 7.80171 170.651 7.12099 170.651 6.19274C170.651 5.27333 170.333 4.61914 169.697 4.23016C169.069 3.84118 168.092 3.64669 166.766 3.64669H165.519V8.88466ZM165.519 12.2264V19.6656H161.409V0.278475H167.058C169.692 0.278475 171.641 0.76028 172.906 1.72389C174.17 2.67866 174.802 4.13292 174.802 6.08666C174.802 7.22708 174.488 8.24373 173.86 9.13662C173.233 10.0207 172.344 10.7146 171.195 11.2185L176.897 19.6656H172.335L167.707 12.2264H165.519Z" fill="#FFBB7C"/>
<path d="M190.503 19.6656H179.337V0.278475H190.503V3.64669H183.448V7.90337H190.012V11.2716H183.448V16.2709H190.503V19.6656Z" fill="#FFBB7C"/>
<path d="M211.759 19.6656H206.535L198.101 4.99928H197.982C198.15 7.58954 198.234 9.43719 198.234 10.5422V19.6656H194.56V0.278475H199.745L208.166 14.7989H208.259C208.126 12.2794 208.06 10.498 208.06 9.45487V0.278475H211.759V19.6656Z" fill="#FFBB7C"/>
<path d="M232.738 9.78639C232.738 12.9778 231.827 15.4222 230.006 17.1196C228.194 18.8169 225.573 19.6656 222.143 19.6656H216.653V0.278475H222.739C225.904 0.278475 228.362 1.1139 230.112 2.78475C231.863 4.45559 232.738 6.78947 232.738 9.78639ZM228.468 9.89248C228.468 5.72862 226.629 3.64669 222.951 3.64669H220.763V16.2709H222.527C226.488 16.2709 228.468 14.1447 228.468 9.89248Z" fill="#FFBB7C"/>
<path d="M248.2 14.2818C248.2 16.0322 247.568 17.4113 246.304 18.4191C245.048 19.4269 243.298 19.9308 241.052 19.9308C238.984 19.9308 237.154 19.5418 235.562 18.7639V14.9448C236.871 15.5283 237.976 15.9394 238.878 16.178C239.788 16.4167 240.619 16.5361 241.371 16.5361C242.272 16.5361 242.962 16.3637 243.439 16.0189C243.925 15.6741 244.169 15.1614 244.169 14.4807C244.169 14.1005 244.063 13.7646 243.85 13.4729C243.638 13.1723 243.324 12.885 242.909 12.6109C242.502 12.3369 241.667 11.8993 240.403 11.2981C239.218 10.7412 238.329 10.2063 237.737 9.69357C237.145 9.18082 236.672 8.58409 236.318 7.90337C235.965 7.22266 235.788 6.42702 235.788 5.51645C235.788 3.8014 236.367 2.45323 237.525 1.47194C238.692 0.490646 240.301 0 242.352 0C243.36 0 244.319 0.119346 245.229 0.358039C246.149 0.596731 247.108 0.932669 248.107 1.36585L246.781 4.56168C245.747 4.13734 244.889 3.84118 244.208 3.67321C243.536 3.50524 242.873 3.42126 242.219 3.42126C241.441 3.42126 240.845 3.60249 240.429 3.96495C240.014 4.32741 239.806 4.80037 239.806 5.38384C239.806 5.7463 239.89 6.06456 240.058 6.33861C240.226 6.60382 240.491 6.86462 240.853 7.12099C241.225 7.36852 242.096 7.81939 243.466 8.47358C245.278 9.33995 246.52 10.2107 247.192 11.0859C247.864 11.9523 248.2 13.0176 248.2 14.2818Z" fill="#FFBB7C"/>
<path d="M144.73 20.6045H132V19H144.73V20.6045Z" fill="#FFBB7C"/>
</svg>
